# xmcd
#
# Track frame offsets:
#	150
#	19257
#	41425
#	63582
#	85175
#	105472
#	126770
#	147427
#	167342
#	191122
#	211427
#	232262
#
# Disc length: 3381 seconds
#
# Revision: 0
# Processed by: cddbd v1.5PL3 Copyright (c) Steve Scherf et al.
# Submitted via: dBpowerAMP V4.0
#
DISCID=a90d330c
DTITLE=邰正宵 - 愛歸零
DYEAR=1996
DGENRE=
TTITLE0=愛歸零
TTITLE1=為愛存在
TTITLE2=寄託
TTITLE3=愛你到底
TTITLE4=一個適合失眠的夜晚
TTITLE5=我相信他是真的愛你
TTITLE6=讓我一生擁有你
TTITLE7=寂寞是一種快樂
TTITLE8=愛的狂風
TTITLE9=單情絃
TTITLE10=最後一次思念
TTITLE11=365 天愛你不變
EXTD=
EXTT0=
EXTT1=
EXTT2=
EXTT3=
EXTT4=
EXTT5=
EXTT6=
EXTT7=
EXTT8=
EXTT9=
EXTT10=
EXTT11=
PLAYORDER=
